<svg xmlns="http://www.w3.org/2000/svg" width="1101" height="357" viewBox="0 0 1101 357" fill="none">
    <path d="M15.9255 102.288C15.9255 102.288 56.0259 107.486 76.8187 136.448C97.6115 165.409 92.4133 175.806 100.582 215.163C108.751 254.521 112.464 272.344 130.286 296.107C148.108 319.87 163.703 330.266 188.951 342.891C214.2 355.515 258.756 357 258.756 357V296.849C258.756 296.849 217.17 299.077 184.496 259.719C162.294 234.721 162.103 189.172 160.733 175.806C157.762 146.844 139.94 108.972 105.78 78.5249C71.6205 48.0783 15.9255 41.3949 15.9255 41.3949V102.288Z" fill="#262B44" />
    <path d="M29.8636 69.8775C29.8636 69.8775 64.1935 78.5248 94.6407 111.199C125.088 143.874 129.541 173.579 133.999 201.055C138.456 228.53 137.712 258.977 167.417 290.909C197.123 322.84 248.359 329.524 248.359 329.524" stroke="white" stroke-dasharray="10 5" />
    <path d="M501.085 102.288C501.085 102.288 460.985 107.486 440.192 136.448C419.399 165.409 424.597 175.806 416.429 215.163C408.26 254.521 404.547 272.344 386.725 296.107C368.902 319.87 353.308 330.266 328.059 342.891C302.811 355.515 258.255 357 258.255 357V296.849C258.255 296.849 299.841 299.077 332.515 259.719C354.716 234.721 354.907 189.172 356.278 175.806C359.249 146.844 377.071 108.972 411.231 78.5249C445.39 48.0783 501.085 41.3949 501.085 41.3949V102.288Z" fill="#262B44" />
    <path d="M487.147 69.8775C487.147 69.8775 452.817 78.5248 422.37 111.199C391.922 143.874 387.469 173.579 383.012 201.055C378.554 228.53 379.299 258.977 349.593 290.909C319.887 322.84 268.651 329.524 268.651 329.524" stroke="white" stroke-dasharray="10 5" />
    <path d="M531.29 102.288C531.29 102.288 571.39 107.486 592.183 136.448C612.976 165.409 607.777 175.805 615.946 215.163C624.115 254.521 627.828 272.343 645.65 296.107C663.472 319.87 679.067 330.266 704.315 342.89C729.564 355.515 774.12 357 774.12 357V296.849C774.12 296.849 732.534 299.077 699.86 259.719C677.658 234.721 677.467 189.171 676.097 175.805C673.126 146.844 655.304 108.971 621.144 78.5248C586.985 48.0782 531.29 41.3948 531.29 41.3948V102.288Z" fill="#262B44" />
    <path d="M545.228 69.8774C545.228 69.8774 579.558 78.5247 610.005 111.199C640.452 143.874 644.906 173.579 649.363 201.054C653.82 228.53 653.076 258.977 682.782 290.909C712.488 322.84 763.724 329.524 763.724 329.524" stroke="white" stroke-dasharray="10 5" />
    <path d="M1016.45 102.288C1016.45 102.288 976.348 107.486 955.555 136.448C934.762 165.409 939.961 175.806 931.792 215.163C923.623 254.521 919.91 272.344 902.088 296.107C884.266 319.87 868.671 330.266 843.423 342.891C818.174 355.515 773.618 357 773.618 357V296.849C773.618 296.849 815.204 299.077 847.878 259.719C870.08 234.721 870.271 189.172 871.641 175.806C874.612 146.844 892.434 108.972 926.594 78.5249C960.753 48.0783 1016.45 41.3949 1016.45 41.3949V102.288Z" fill="#262B44" />
    <path d="M1002.51 69.8775C1002.51 69.8775 968.18 78.5248 937.733 111.199C907.286 143.874 902.832 173.579 898.375 201.055C893.918 228.53 894.662 258.977 864.956 290.909C835.251 322.84 784.015 329.524 784.015 329.524" stroke="white" stroke-dasharray="10 5" />
    <path d="M493 42.4762C493 42.4762 505.73 40 516.365 40C527 40 539 42.4762 539 42.4762L536.81 103C536.81 103 522.206 100.786 516.365 100.786C510.524 100.786 495.921 103 495.921 103L493 42.4762Z" fill="#262B44" />
    <path d="M1079.61 57.3165C1085.05 59.6817 1086.11 66.9394 1081.58 70.7665L1023.22 120.032C1018.43 124.078 1011.05 121.286 1010.14 115.079L998.46 35.3667C997.551 29.1605 1003.81 24.3693 1009.56 26.8698L1079.61 57.3165Z" fill="#262B44" />
</svg>
